<?xml version="1.0" encoding="UTF-8"?>
<svg width="30px" height="21px" viewBox="0 0 30 21" version="1.1" xmlns="http://www.w3.org/2000/svg" xmlns:xlink="http://www.w3.org/1999/xlink">
    <!-- Generator: Sketch 59.1 (86144) - https://sketch.com -->
    <title>Combined Shape 2</title>
    <desc>Created with Sketch.</desc>
    <g id="Page-1" stroke="none" stroke-width="1" fill="none" fill-rule="evenodd">
        <g id="Combined-Shape-2" fill="#FFFFFF">
            <path d="M28.5,18 C29.3284271,18 30,18.6715729 30,19.5 C30,20.3284271 29.3284271,21 28.5,21 L1.5,21 C0.671572875,21 -5.22761746e-15,20.3284271 -5.32907052e-15,19.5 C-5.43052358e-15,18.6715729 0.671572875,18 1.5,18 L28.5,18 Z M28.5,9 C29.3284271,9 30,9.67157288 30,10.5 C30,11.3284271 29.3284271,12 28.5,12 L1.5,12 C0.671572875,12 -5.22761746e-15,11.3284271 -5.32907052e-15,10.5 C-5.43052358e-15,9.67157288 0.671572875,9 1.5,9 L28.5,9 Z M28.5,0 C29.3284271,-1.52179594e-16 30,0.671572875 30,1.5 C30,2.32842712 29.3284271,3 28.5,3 L1.5,3 C0.671572875,3 -5.22761746e-15,2.32842712 -5.32907052e-15,1.5 C-5.43052358e-15,0.671572875 0.671572875,1.52179594e-16 1.5,0 L28.5,0 Z" id="Combined-Shape"></path>
        </g>
    </g>
</svg>